Dinish-Regular.ufo
<glyph name="numbersign" format="2">
  <advance width="523"/>
  <unicode hex="0023"/>
  <outline>
    <contour>
      <point x="80" y="0" type="line"/>
      <point x="141" y="0" type="line"/>
      <point x="171" y="226" type="line"/>
      <point x="312" y="226" type="line"/>
      <point x="283" y="0" type="line"/>
      <point x="344" y="0" type="line"/>
      <point x="374" y="226" type="line"/>
      <point x="473" y="226" type="line"/>
      <point x="473" y="284" type="line"/>
      <point x="381" y="284" type="line"/>
      <point x="401" y="440" type="line"/>
      <point x="498" y="440" type="line"/>
      <point x="498" y="497" type="line"/>
      <point x="409" y="497" type="line"/>
      <point x="436" y="707" type="line"/>
      <point x="375" y="707" type="line"/>
      <point x="347" y="497" type="line"/>
      <point x="206" y="497" type="line"/>
      <point x="233" y="707" type="line"/>
      <point x="173" y="707" type="line"/>
      <point x="145" y="497" type="line"/>
      <point x="50" y="497" type="line"/>
      <point x="50" y="440" type="line"/>
      <point x="138" y="440" type="line"/>
      <point x="118" y="284" type="line"/>
      <point x="26" y="284" type="line"/>
      <point x="26" y="226" type="line"/>
      <point x="110" y="226" type="line"/>
    </contour>
    <contour>
      <point x="178" y="284" type="line"/>
      <point x="199" y="440" type="line"/>
      <point x="340" y="440" type="line"/>
      <point x="319" y="284" type="line"/>
    </contour>
  </outline>
</glyph>
<glyph name="comma" format="2">
  <advance width="176"/>
  <unicode hex="002C"/>
  <outline>
    <contour>
      <point x="54" y="-140" type="line"/>
      <point x="122" y="-77" type="line"/>
      <point x="122" y="95" type="line"/>
      <point x="54" y="95" type="line"/>
    </contour>
  </outline>
</glyph>
<glyph name="two" format="2">
  <advance width="479"/>
  <unicode hex="0032"/>
  <outline>
    <contour>
      <point x="60" y="0" type="line"/>
      <point x="419" y="0" type="line"/>
      <point x="419" y="67" type="line"/>
      <point x="154.818" y="67" type="line"/>
      <point x="357" y="361" type="line" smooth="yes"/>
      <point x="401.312" y="425.436"/>
      <point x="419" y="474.252"/>
      <point x="419" y="532.113" type="curve" smooth="yes"/>
      <point x="418.876" y="540.432" type="line" smooth="yes"/>
      <point x="415.619" y="649.055"/>
      <point x="348.272" y="717"/>
      <point x="241.879" y="717" type="curve" smooth="yes"/>
      <point x="133.222" y="717"/>
      <point x="60" y="646.133"/>
      <point x="60" y="540" type="curve" smooth="yes"/>
      <point x="60" y="517" type="line"/>
      <point x="136.076" y="517" type="line"/>
      <point x="136.076" y="528.684" type="line" smooth="yes"/>
      <point x="136.076" y="610.973"/>
      <point x="170.692" y="650"/>
      <point x="235.45" y="650" type="curve" smooth="yes"/>
      <point x="301.244" y="650"/>
      <point x="342.915" y="609.933"/>
      <point x="342.915" y="539.382" type="curve" smooth="yes"/>
      <point x="342.915" y="530.862" type="line" smooth="yes"/>
      <point x="342.915" y="485.011"/>
      <point x="328.792" y="443.296"/>
      <point x="298.431" y="400" type="curve" smooth="yes"/>
      <point x="60" y="60" type="line"/>
    </contour>
  </outline>
</glyph>
<glyph name="equal" format="2">
  <advance width="524"/>
  <unicode hex="003D"/>
  <outline>
    <contour>
      <point x="58" y="346" type="line"/>
      <point x="466" y="346" type="line"/>
      <point x="466" y="415" type="line"/>
      <point x="58" y="415" type="line"/>
    </contour>
    <contour>
      <point x="58" y="151" type="line"/>
      <point x="466" y="151" type="line"/>
      <point x="466" y="218" type="line"/>
      <point x="58" y="218" type="line"/>
    </contour>
  </outline>
</glyph>
<glyph name="J" format="2">
  <advance width="320"/>
  <unicode hex="004A"/>
  <anchor x="193" y="773" name="top"/>
  <anchor x="236" y="-86" name="bottom"/>
  <outline>
    <contour>
      <point x="33" y="0" type="line"/>
      <point x="102" y="0" type="line" smooth="yes"/>
      <point x="190.139" y="0"/>
      <point x="230" y="51.0542"/>
      <point x="230" y="136" type="curve" smooth="yes"/>
      <point x="230" y="707" type="line"/>
      <point x="156" y="707" type="line"/>
      <point x="156" y="145" type="line" smooth="yes"/>
      <point x="156" y="74.7661"/>
      <point x="124.715" y="68.2201"/>
      <point x="75.971" y="68.2201" type="curve" smooth="yes"/>
      <point x="33" y="68.2201" type="line"/>
    </contour>
  </outline>
  <guideline angle="90" name="h1" x="193" y="0"/>
</glyph>
<glyph name="N" format="2">
  <advance width="679"/>
  <unicode hex="004E"/>
  <anchor x="342" y="773" name="top"/>
  <anchor x="342" y="-86" name="bottom"/>
  <outline>
    <contour>
      <point x="82" y="0" type="line"/>
      <point x="157" y="0" type="line"/>
      <point x="157" y="569" type="line"/>
      <point x="522" y="0" type="line"/>
      <point x="597" y="0" type="line"/>
      <point x="597" y="707" type="line"/>
      <point x="522" y="707" type="line"/>
      <point x="522" y="139" type="line"/>
      <point x="157" y="707" type="line"/>
      <point x="82" y="707" type="line"/>
    </contour>
  </outline>
  <guideline angle="90" name="h1" x="342" y="0"/>
</glyph>
<glyph name="U" format="2">
  <advance width="646"/>
  <unicode hex="0055"/>
  <anchor x="324" y="773" name="top"/>
  <anchor x="324" y="-86" name="bottom"/>
  <anchor x="361" y="0" name="b.cedilla"/>
  <outline>
    <contour>
      <point x="80" y="707" type="line"/>
      <point x="80" y="230" type="line" smooth="yes"/>
      <point x="80" y="91.1154"/>
      <point x="187.679" y="-6"/>
      <point x="324" y="-6" type="curve" smooth="yes"/>
      <point x="461.804" y="-6"/>
      <point x="566" y="90.2328"/>
      <point x="566" y="230" type="curve" smooth="yes"/>
      <point x="566" y="707" type="line"/>
      <point x="490" y="707" type="line"/>
      <point x="490" y="237" type="line" smooth="yes"/>
      <point x="490" y="136.484"/>
      <point x="427.564" y="60"/>
      <point x="324" y="60" type="curve" smooth="yes"/>
      <point x="218.318" y="60"/>
      <point x="156" y="134.465"/>
      <point x="156" y="237" type="curve" smooth="yes"/>
      <point x="156" y="707" type="line"/>
    </contour>
  </outline>
  <guideline angle="90" name="h1" x="324" y="0"/>
</glyph>
<glyph name="X" format="2">
  <advance width="579"/>
  <unicode hex="0058"/>
  <anchor x="289" y="773" name="top"/>
  <anchor x="236" y="-86" name="bottom"/>
  <outline>
    <contour>
      <point x="7" y="0" type="line"/>
      <point x="94" y="0" type="line"/>
      <point x="288" y="308" type="line"/>
      <point x="482" y="0" type="line"/>
      <point x="572" y="0" type="line"/>
      <point x="334" y="371" type="line"/>
      <point x="550" y="707" type="line"/>
      <point x="463" y="707" type="line"/>
      <point x="290" y="429" type="line"/>
      <point x="117" y="707" type="line"/>
      <point x="27" y="707" type="line"/>
      <point x="245" y="368" type="line"/>
    </contour>
  </outline>
  <guideline angle="90" name="h1" x="289" y="0"/>
</glyph>
<glyph name="bracketright" format="2">
  <advance width="302"/>
  <unicode hex="005D"/>
  <outline>
    <contour>
      <point x="60" y="-86" type="line"/>
      <point x="220" y="-86" type="line"/>
      <point x="220" y="758" type="line"/>
      <point x="60" y="758" type="line"/>
      <point x="60" y="690" type="line"/>
      <point x="148" y="690" type="line"/>
      <point x="148" y="-18" type="line"/>
      <point x="60" y="-18" type="line"/>
    </contour>
  </outline>
</glyph>
<glyph name="a" format="2">
  <advance width="508"/>
  <unicode hex="0061"/>
  <anchor x="245" y="586" name="top"/>
  <anchor x="245" y="578" name="t.ring"/>
  <anchor x="245" y="-86" name="bottom"/>
  <anchor x="432" y="0" name="b.cedilla"/>
  <outline>
    <contour>
      <point x="364" y="0" type="line"/>
      <point x="432" y="0" type="line"/>
      <point x="432" y="353" type="line" smooth="yes"/>
      <point x="432" y="469.161"/>
      <point x="354.609" y="526"/>
      <point x="244" y="526" type="curve" smooth="yes"/>
      <point x="153.699" y="526"/>
      <point x="63" y="481.824"/>
      <point x="63" y="380" type="curve" smooth="yes"/>
      <point x="63" y="375" type="line"/>
      <point x="131" y="375" type="line"/>
      <point x="131" y="379" type="line" smooth="yes"/>
      <point x="131" y="441.928"/>
      <point x="188.967" y="468"/>
      <point x="245" y="468" type="curve" smooth="yes"/>
      <point x="317.732" y="468"/>
      <point x="362" y="427.869"/>
      <point x="362" y="354" type="curve" smooth="yes"/>
      <point x="362" y="295" type="line"/>
      <point x="331.842" y="295.66"/>
      <point x="301.702" y="297.101"/>
      <point x="271.531" y="297.101" type="curve" smooth="yes"/>
      <point x="164.592" y="297.101"/>
      <point x="48" y="279.543"/>
      <point x="48" y="146" type="curve" smooth="yes"/>
      <point x="48" y="41.3572"/>
      <point x="122.658" y="-6"/>
      <point x="220" y="-6" type="curve" smooth="yes"/>
      <point x="273.611" y="-6"/>
      <point x="330.092" y="11.1132"/>
      <point x="364" y="55" type="curve"/>
    </contour>
    <contour>
      <point x="362" y="244" type="line"/>
      <point x="362" y="176" type="line" smooth="yes"/>
      <point x="362" y="89.7256"/>
      <point x="315.249" y="50"/>
      <point x="231" y="50" type="curve" smooth="yes"/>
      <point x="166.574" y="50"/>
      <point x="118" y="76.4347"/>
      <point x="118" y="147" type="curve" smooth="yes"/>
      <point x="118" y="217.261"/>
      <point x="168.136" y="244"/>
      <point x="232" y="244" type="curve" smooth="yes"/>
    </contour>
  </outline>
  <guideline angle="0" name="horizontal" x="0" y="519"/>
  <guideline angle="90" name="h1" x="245" y="0"/>
</glyph>
<glyph name="l" format="2">
  <advance width="285"/>
  <unicode hex="006C"/>
  <anchor x="111" y="773" name="top"/>
  <anchor x="168" y="-86" name="bottom"/>
  <anchor x="264" y="397" name="dot"/>
  <outline>
    <contour>
      <point x="254" y="0" type="line"/>
      <point x="254" y="63.1521" type="line"/>
      <point x="232.094" y="63.1521" type="line" smooth="yes"/>
      <point x="180.172" y="63.1521"/>
      <point x="146" y="77.8859"/>
      <point x="146" y="140" type="curve" smooth="yes"/>
      <point x="146" y="707" type="line"/>
      <point x="77" y="707" type="line"/>
      <point x="77" y="136" type="line" smooth="yes"/>
      <point x="77" y="53.5483"/>
      <point x="119.529" y="0"/>
      <point x="205" y="0" type="curve" smooth="yes"/>
    </contour>
  </outline>
  <guideline angle="0" name="horizontal" x="0" y="707"/>
  <guideline angle="90" name="h1" x="111" y="0"/>
</glyph>
<glyph name="p" format="2">
  <advance width="522"/>
  <unicode hex="0070"/>
  <anchor x="272" y="586" name="top"/>
  <anchor x="236" y="-86" name="bottom"/>
  <outline>
    <contour>
      <point x="77" y="-156" type="line"/>
      <point x="146" y="-156" type="line"/>
      <point x="146" y="69" type="line"/>
      <point x="176" y="16"/>
      <point x="228" y="-6"/>
      <point x="287" y="-6" type="curve" smooth="yes"/>
      <point x="416" y="-6"/>
      <point x="462" y="92"/>
      <point x="462" y="207" type="curve" smooth="yes"/>
      <point x="462" y="313" type="line" smooth="yes"/>
      <point x="462" y="431"/>
      <point x="412" y="525"/>
      <point x="282" y="525" type="curve" smooth="yes"/>
      <point x="223" y="525"/>
      <point x="174" y="498"/>
      <point x="146" y="446" type="curve"/>
      <point x="146" y="519" type="line"/>
      <point x="77" y="519" type="line"/>
    </contour>
    <contour>
      <point x="276" y="56" type="curve" smooth="yes"/>
      <point x="186" y="56"/>
      <point x="146" y="131"/>
      <point x="146" y="212" type="curve" smooth="yes"/>
      <point x="146" y="303" type="line" smooth="yes"/>
      <point x="146" y="384"/>
      <point x="179" y="463"/>
      <point x="272" y="463" type="curve" smooth="yes"/>
      <point x="367" y="463"/>
      <point x="392" y="389"/>
      <point x="392" y="308" type="curve" smooth="yes"/>
      <point x="392" y="211" type="line" smooth="yes"/>
      <point x="392" y="132"/>
      <point x="369" y="56"/>
    </contour>
  </outline>
  <guideline angle="0" name="horizontal" x="0" y="519"/>
  <guideline angle="90" name="h1" x="272" y="0"/>
</glyph>
<glyph name="t" format="2">
  <advance width="348"/>
  <unicode hex="0074"/>
  <anchor x="186" y="-86" name="bottom"/>
  <anchor x="151" y="773" name="top"/>
  <outline>
    <contour>
      <point x="294" y="0" type="line"/>
      <point x="294" y="61.0275" type="line"/>
      <point x="279.88" y="61.0275" type="line" smooth="yes"/>
      <point x="228.601" y="61.0275"/>
      <point x="186" y="70.6462"/>
      <point x="186" y="132" type="curve" smooth="yes"/>
      <point x="186" y="464" type="line"/>
      <point x="303" y="464" type="line"/>
      <point x="303" y="519" type="line"/>
      <point x="186" y="519" type="line"/>
      <point x="186" y="671" type="line"/>
      <point x="116" y="638" type="line"/>
      <point x="116" y="519" type="line"/>
      <point x="35" y="519" type="line"/>
      <point x="35" y="464" type="line"/>
      <point x="116" y="464" type="line"/>
      <point x="116" y="129" type="line" smooth="yes"/>
      <point x="116" y="49.6531"/>
      <point x="161.546" y="0"/>
      <point x="242" y="0" type="curve" smooth="yes"/>
    </contour>
  </outline>
  <guideline angle="0" name="horizontal" x="0" y="671"/>
  <guideline angle="90" name="h1" x="151" y="0"/>
</glyph>
<glyph name="exclamdown" format="2">
  <advance width="244"/>
  <unicode hex="00A1"/>
  <outline>
    <contour>
      <point x="77" y="423" type="line"/>
      <point x="169" y="423" type="line"/>
      <point x="169" y="519" type="line"/>
      <point x="77" y="519" type="line"/>
    </contour>
    <contour>
      <point x="80" y="-156" type="line"/>
      <point x="166" y="-156" type="line"/>
      <point x="152" y="318" type="line"/>
      <point x="94" y="318" type="line"/>
    </contour>
  </outline>
</glyph>
<glyph name="cent" format="2">
  <advance width="515"/>
  <unicode hex="00A2"/>
  <outline>
    <contour>
      <point x="222" y="-102" type="line"/>
      <point x="282" y="-102" type="line"/>
      <point x="282" y="-5" type="line"/>
      <point x="387.876" y="0.958021"/>
      <point x="455" y="67.6945"/>
      <point x="455" y="167" type="curve" smooth="yes"/>
      <point x="455" y="171" type="line"/>
      <point x="386.978" y="171" type="line"/>
      <point x="386.978" y="167.002" type="line" smooth="yes"/>
      <point x="386.978" y="95.618"/>
      <point x="341.202" y="55.4306"/>
      <point x="259.892" y="55.4306" type="curve" smooth="yes"/>
      <point x="173.216" y="55.4306"/>
      <point x="130" y="107.19"/>
      <point x="130" y="211" type="curve" smooth="yes"/>
      <point x="130" y="309" type="line" smooth="yes"/>
      <point x="130" y="411.595"/>
      <point x="173.81" y="463.48"/>
      <point x="260.436" y="463.48" type="curve" smooth="yes"/>
      <point x="341.907" y="463.48"/>
      <point x="386.939" y="424.794"/>
      <point x="386.939" y="354.806" type="curve" smooth="yes"/>
      <point x="386.939" y="348" type="line"/>
      <point x="454.955" y="348" type="line"/>
      <point x="454.955" y="354.822" type="line" smooth="yes"/>
      <point x="454.955" y="455.264"/>
      <point x="390.267" y="518.914"/>
      <point x="282" y="525" type="curve"/>
      <point x="282" y="622" type="line"/>
      <point x="222" y="622" type="line"/>
      <point x="222" y="524" type="line"/>
      <point x="114.557" y="509.293"/>
      <point x="60" y="438.235"/>
      <point x="60" y="313" type="curve" smooth="yes"/>
      <point x="60" y="207" type="line" smooth="yes"/>
      <point x="60" y="84.3253"/>
      <point x="115.944" y="11.8052"/>
      <point x="222" y="-3" type="curve"/>
    </contour>
  </outline>
</glyph>
<glyph name="sterling" format="2">
  <advance width="446"/>
  <unicode hex="00A3"/>
  <outline>
    <contour>
      <point x="55" y="0" type="line"/>
      <point x="413" y="0" type="line"/>
      <point x="413" y="70" type="line"/>
      <point x="143" y="70" type="line"/>
      <point x="166.532" y="95.4719"/>
      <point x="177" y="128.724"/>
      <point x="177" y="178" type="curve" smooth="yes"/>
      <point x="177" y="297" type="line"/>
      <point x="319" y="297" type="line"/>
      <point x="319" y="365" type="line"/>
      <point x="177" y="365" type="line"/>
      <point x="177" y="552" type="line" smooth="yes"/>
      <point x="177" y="612.688"/>
      <point x="205.533" y="647"/>
      <point x="256" y="647" type="curve" smooth="yes"/>
      <point x="305.151" y="647"/>
      <point x="335.044" y="614.459"/>
      <point x="335" y="561" type="curve"/>
      <point x="409" y="561" type="line"/>
      <point x="409.022" y="655.896"/>
      <point x="349.484" y="717"/>
      <point x="257" y="717" type="curve" smooth="yes"/>
      <point x="160.496" y="717"/>
      <point x="101" y="649.876"/>
      <point x="101" y="541" type="curve" smooth="yes"/>
      <point x="101" y="365" type="line"/>
      <point x="34" y="365" type="line"/>
      <point x="34" y="297" type="line"/>
      <point x="101" y="297" type="line"/>
      <point x="101" y="169" type="line" smooth="yes"/>
      <point x="101" y="113.002"/>
      <point x="88.341" y="83.8313"/>
      <point x="55" y="63" type="curve"/>
    </contour>
  </outline>
</glyph>
<glyph name="section" format="2">
  <advance width="523"/>
  <unicode hex="00A7"/>
  <outline>
    <contour>
      <point x="95" y="-4" type="line"/>
      <point x="94.9683" y="-114.779"/>
      <point x="151.167" y="-172"/>
      <point x="260" y="-172" type="curve" smooth="yes"/>
      <point x="358.829" y="-172"/>
      <point x="425" y="-110.24"/>
      <point x="425" y="-18" type="curve" smooth="yes"/>
      <point x="425" y="50.5182"/>
      <point x="398.398" y="94.7476"/>
      <point x="342" y="120" type="curve"/>
      <point x="402.953" y="139.646"/>
      <point x="441" y="201.904"/>
      <point x="441" y="282" type="curve" smooth="yes"/>
      <point x="441" y="424.457"/>
      <point x="361.156" y="450.143"/>
      <point x="289.455" y="469.485" type="curve" smooth="yes"/>
      <point x="203.926" y="492.557"/>
      <point x="178" y="521.083"/>
      <point x="178" y="580" type="curve" smooth="yes"/>
      <point x="178" y="633.612"/>
      <point x="210.765" y="666"/>
      <point x="265" y="666" type="curve" smooth="yes"/>
      <point x="322.302" y="666"/>
      <point x="352.066" y="633.157"/>
      <point x="352" y="570" type="curve"/>
      <point x="423" y="570" type="line"/>
      <point x="423.028" y="673.451"/>
      <point x="366.194" y="731"/>
      <point x="264" y="731" type="curve" smooth="yes"/>
      <point x="168.454" y="731"/>
      <point x="104" y="670.172"/>
      <point x="104" y="580" type="curve" smooth="yes"/>
      <point x="104" y="515.18"/>
      <point x="130.207" y="470.955"/>
      <point x="184" y="445" type="curve"/>
      <point x="117.792" y="420.967"/>
      <point x="82" y="363.771"/>
      <point x="82" y="282" type="curve" smooth="yes"/>
      <point x="82" y="177.096"/>
      <point x="122.202" y="124.916"/>
      <point x="237.1" y="93.9625" type="curve" smooth="yes"/>
      <point x="319.84" y="71.6724"/>
      <point x="351" y="39.5894"/>
      <point x="351" y="-16" type="curve" smooth="yes"/>
      <point x="351" y="-74.1303"/>
      <point x="318.422" y="-106"/>
      <point x="259" y="-106" type="curve" smooth="yes"/>
      <point x="195.019" y="-106"/>
      <point x="165.932" y="-74.0986"/>
      <point x="166" y="-4" type="curve"/>
    </contour>
    <contour>
      <point x="262" y="163" type="curve" smooth="yes"/>
      <point x="194.762" y="163"/>
      <point x="156" y="206.515"/>
      <point x="156" y="282" type="curve" smooth="yes"/>
      <point x="156" y="357.485"/>
      <point x="194.762" y="401"/>
      <point x="262" y="401" type="curve" smooth="yes"/>
      <point x="329.078" y="401"/>
      <point x="368" y="357.305"/>
      <point x="368" y="282" type="curve" smooth="yes"/>
      <point x="368" y="208.051"/>
      <point x="327.87" y="163"/>
    </contour>
  </outline>
</glyph>
<glyph name="guillemotleft" format="2">
  <advance width="489"/>
  <unicode hex="00AB"/>
  <outline>
    <contour>
      <point x="225" y="68" type="line"/>
      <point x="225" y="153" type="line"/>
      <point x="110" y="270" type="line"/>
      <point x="225" y="388" type="line"/>
      <point x="225" y="473" type="line"/>
      <point x="26" y="270" type="line"/>
    </contour>
    <contour>
      <point x="413" y="68" type="line"/>
      <point x="413" y="153" type="line"/>
      <point x="297" y="270" type="line"/>
      <point x="413" y="388" type="line"/>
      <point x="413" y="473" type="line"/>
      <point x="213" y="270" type="line"/>
    </contour>
  </outline>
</glyph>
<glyph name="plusminus" format="2">
  <advance width="524"/>
  <unicode hex="00B1"/>
  <outline>
    <contour>
      <point x="228" y="116" type="line"/>
      <point x="296" y="116" type="line"/>
      <point x="296" y="286" type="line"/>
      <point x="466" y="286" type="line"/>
      <point x="466" y="353" type="line"/>
      <point x="296" y="353" type="line"/>
      <point x="296" y="523" type="line"/>
      <point x="228" y="523" type="line"/>
      <point x="228" y="353" type="line"/>
      <point x="58" y="353" type="line"/>
      <point x="58" y="286" type="line"/>
      <point x="228" y="286" type="line"/>
    </contour>
    <contour>
      <point x="58" y="-4" type="line"/>
      <point x="466" y="-4" type="line"/>
      <point x="466" y="63" type="line"/>
      <point x="58" y="63" type="line"/>
    </contour>
  </outline>
</glyph>
<glyph name="ij" format="2">
  <advance width="500"/>
  <unicode hex="0133"/>
  <outline>
    <contour>
      <point x="81" y="615" type="line"/>
      <point x="150" y="615" type="line"/>
      <point x="150" y="707" type="line"/>
      <point x="81" y="707" type="line"/>
    </contour>
    <contour>
      <point x="353" y="614" type="line"/>
      <point x="423" y="614" type="line"/>
      <point x="423" y="707" type="line"/>
      <point x="353" y="707" type="line"/>
    </contour>
    <contour>
      <point x="87" y="-26" type="line"/>
      <point x="92.8277" y="-114.075"/>
      <point x="168.232" y="-162"/>
      <point x="251" y="-162" type="curve" smooth="yes"/>
      <point x="368.862" y="-162"/>
      <point x="423" y="-66.6404"/>
      <point x="423" y="41" type="curve" smooth="yes"/>
      <point x="423" y="519" type="line"/>
      <point x="353" y="519" type="line"/>
      <point x="353" y="251" type="line" smooth="yes"/>
      <point x="353" y="181.895"/>
      <point x="324.185" y="103"/>
      <point x="243" y="103" type="curve" smooth="yes"/>
      <point x="163.905" y="103"/>
      <point x="148" y="187.08"/>
      <point x="148" y="250" type="curve" smooth="yes"/>
      <point x="148" y="519" type="line"/>
      <point x="77" y="519" type="line"/>
      <point x="77" y="246" type="line" smooth="yes"/>
      <point x="77" y="151.998"/>
      <point x="119.957" y="32"/>
      <point x="233" y="32" type="curve" smooth="yes"/>
      <point x="284.869" y="32"/>
      <point x="328.478" y="63.6261"/>
      <point x="353" y="108" type="curve"/>
      <point x="353" y="35" type="line" smooth="yes"/>
      <point x="353" y="-31.6801"/>
      <point x="328.812" y="-101"/>
      <point x="251" y="-101" type="curve" smooth="yes"/>
      <point x="207.859" y="-101"/>
      <point x="161.604" y="-71.0806"/>
      <point x="156" y="-26" type="curve"/>
    </contour>
  </outline>
</glyph>
<glyph name="Lcaron" format="2">
  <advance width="541"/>
  <unicode hex="013D"/>
  <outline>
    <component base="L"/>
    <contour>
      <point x="228" y="533" type="line"/>
      <point x="292" y="595" type="line"/>
      <point x="292" y="707" type="line"/>
      <point x="228" y="707" type="line"/>
    </contour>
  </outline>
</glyph>
<glyph name="lcaron" format="2">
  <advance width="289"/>
  <unicode hex="013E"/>
  <outline>
    <component base="l"/>
    <contour>
      <point x="208" y="533" type="line"/>
      <point x="272" y="595" type="line"/>
      <point x="272" y="707" type="line"/>
      <point x="208" y="707" type="line"/>
    </contour>
  </outline>
</glyph>
<glyph name="Eng" format="2">
  <advance width="678"/>
  <unicode hex="014A"/>
  <outline>
    <contour>
      <point x="82" y="0" type="line"/>
      <point x="157" y="0" type="line"/>
      <point x="157" y="569" type="line"/>
      <point x="522" y="0" type="line"/>
      <point x="522.046" y="-23.6165" type="line"/>
      <point x="522.189" y="-98.0408"/>
      <point x="509.669" y="-109.977"/>
      <point x="431.458" y="-109.977" type="curve" smooth="yes"/>
      <point x="420" y="-109.977" type="line"/>
      <point x="420" y="-173" type="line"/>
      <point x="469" y="-173" type="line" smooth="yes"/>
      <point x="555.771" y="-173"/>
      <point x="597" y="-120.608"/>
      <point x="597" y="-37" type="curve" smooth="yes"/>
      <point x="597" y="707" type="line"/>
      <point x="522" y="707" type="line"/>
      <point x="522" y="139" type="line"/>
      <point x="157" y="707" type="line"/>
      <point x="82" y="707" type="line"/>
    </contour>
  </outline>
</glyph>
<glyph name="oe" format="2">
  <advance width="841"/>
  <unicode hex="0153"/>
  <outline>
    <contour>
      <point x="457" y="246" type="line"/>
      <point x="781" y="246" type="line"/>
      <point x="781" y="307" type="line" smooth="yes"/>
      <point x="781" y="437.6"/>
      <point x="723.505" y="526"/>
      <point x="584" y="526" type="curve" smooth="yes"/>
      <point x="521.153" y="526"/>
      <point x="458.659" y="504.591"/>
      <point x="423" y="450" type="curve"/>
      <point x="386.118" y="507.048"/>
      <point x="325.169" y="526"/>
      <point x="260" y="526" type="curve" smooth="yes"/>
      <point x="123.546" y="526"/>
      <point x="60" y="444.015"/>
      <point x="60" y="313" type="curve" smooth="yes"/>
      <point x="60" y="207" type="line" smooth="yes"/>
      <point x="60" y="75.9846"/>
      <point x="123.546" y="-6"/>
      <point x="260" y="-6" type="curve" smooth="yes"/>
      <point x="324.862" y="-6"/>
      <point x="387.015" y="13.6091"/>
      <point x="423" y="71" type="curve"/>
      <point x="460.6" y="14.5603"/>
      <point x="521.491" y="-6"/>
      <point x="587" y="-6" type="curve" smooth="yes"/>
      <point x="688.932" y="-6"/>
      <point x="777" y="42.7567"/>
      <point x="777" y="155" type="curve" smooth="yes"/>
      <point x="777" y="160" type="line"/>
      <point x="709.968" y="160" type="line"/>
      <point x="709.968" y="155.644" type="line" smooth="yes"/>
      <point x="709.968" y="86.9653"/>
      <point x="657.265" y="56"/>
      <point x="592" y="56" type="curve" smooth="yes"/>
      <point x="488.647" y="56"/>
      <point x="457" y="122.19"/>
      <point x="457" y="215" type="curve" smooth="yes"/>
    </contour>
    <contour>
      <point x="260" y="56" type="curve" smooth="yes"/>
      <point x="160.443" y="56"/>
      <point x="130" y="121.762"/>
      <point x="130" y="211" type="curve" smooth="yes"/>
      <point x="130" y="309" type="line" smooth="yes"/>
      <point x="130" y="399.236"/>
      <point x="159.954" y="463"/>
      <point x="260" y="463" type="curve" smooth="yes"/>
      <point x="359.636" y="463"/>
      <point x="387" y="397.534"/>
      <point x="387" y="309" type="curve" smooth="yes"/>
      <point x="387" y="211" type="line" smooth="yes"/>
      <point x="387" y="123.46"/>
      <point x="359.131" y="56"/>
    </contour>
    <contour>
      <point x="457.069" y="298" type="line"/>
      <point x="457.069" y="310.914" type="line" smooth="yes"/>
      <point x="457.069" y="397.168"/>
      <point x="481.704" y="463"/>
      <point x="585" y="463" type="curve" smooth="yes"/>
      <point x="680.464" y="463"/>
      <point x="711" y="402.559"/>
      <point x="711" y="316" type="curve" smooth="yes"/>
      <point x="711" y="298" type="line"/>
    </contour>
  </outline>
</glyph>
<glyph name="longs" format="2">
  <advance width="294"/>
  <unicode hex="017F"/>
  <anchor x="133" y="773" name="top"/>
  <outline>
    <contour>
      <point x="77" y="0" type="line"/>
      <point x="147" y="0" type="line"/>
      <point x="147" y="464" type="line"/>
      <point x="256" y="464" type="line"/>
      <point x="256" y="519" type="line"/>
      <point x="147" y="519" type="line"/>
      <point x="147" y="544" type="line" smooth="yes"/>
      <point x="147" y="629.787"/>
      <point x="162.284" y="650.902"/>
      <point x="239.661" y="650.902" type="curve" smooth="yes"/>
      <point x="256" y="650.902" type="line"/>
      <point x="256" y="707" type="line"/>
      <point x="202" y="707" type="line" smooth="yes"/>
      <point x="122.462" y="707"/>
      <point x="77" y="656.048"/>
      <point x="77" y="578" type="curve" smooth="yes"/>
    </contour>
  </outline>
  <guideline angle="90" name="h1" x="133" y="0"/>
</glyph>
<glyph name="Lbar" format="2">
  <advance width="541"/>
  <unicode hex="023D"/>
  <outline>
    <component base="L"/>
    <contour>
      <point x="20" y="352" type="line"/>
      <point x="302" y="352" type="line"/>
      <point x="302" y="419" type="line"/>
      <point x="20" y="419" type="line"/>
    </contour>
  </outline>
</glyph>
<glyph name="ogonek" format="2">
  <advance width="306"/>
  <unicode hex="02DB"/>
  <outline>
    <contour>
      <point x="60" y="-100" type="line"/>
      <point x="88" y="-184"/>
      <point x="163" y="-217"/>
      <point x="246" y="-217" type="curve"/>
      <point x="246" y="-155" type="line"/>
      <point x="196" y="-155"/>
      <point x="160" y="-148"/>
      <point x="129" y="-105" type="curve"/>
      <point x="246" y="-3" type="line"/>
      <point x="246" y="0" type="line"/>
      <point x="181" y="0" type="line"/>
    </contour>
  </outline>
</glyph>
<glyph name="tilde" format="2">
  <advance width="512"/>
  <unicode hex="02DC"/>
  <outline>
    <contour>
      <point x="129" y="583" type="line"/>
      <point x="157.009" y="613.018"/>
      <point x="174.227" y="623"/>
      <point x="198" y="623" type="curve" smooth="yes"/>
      <point x="234.111" y="623"/>
      <point x="265.501" y="584"/>
      <point x="311" y="584" type="curve" smooth="yes"/>
      <point x="335.439" y="584"/>
      <point x="360.253" y="597.281"/>
      <point x="382" y="622" type="curve"/>
      <point x="382" y="684" type="line"/>
      <point x="354.539" y="654.577"/>
      <point x="336.558" y="644"/>
      <point x="314" y="644" type="curve" smooth="yes"/>
      <point x="277.976" y="644"/>
      <point x="240.251" y="684"/>
      <point x="200" y="684" type="curve" smooth="yes"/>
      <point x="173.22" y="684"/>
      <point x="152.811" y="672.79"/>
      <point x="129" y="645" type="curve"/>
    </contour>
  </outline>
</glyph>
<glyph name="uni0326" format="2">
  <unicode hex="0326"/>
  <anchor x="0" y="-40" name="_bottom"/>
  <outline>
    <contour>
      <point x="-32" y="-173" type="line"/>
      <point x="32" y="-111" type="line"/>
      <point x="32" y="-40" type="line"/>
      <point x="-32" y="-40" type="line"/>
    </contour>
  </outline>
</glyph>
<glyph name="Eukrcyr" format="2">
  <advance width="618"/>
  <unicode hex="0404"/>
  <anchor x="316" y="773" name="top"/>
  <outline>
    <contour>
      <point x="481.996" y="212" type="line"/>
      <point x="481.996" y="206.769" type="line" smooth="yes"/>
      <point x="481.996" y="109.65"/>
      <point x="410.461" y="60"/>
      <point x="317" y="60" type="curve" smooth="yes"/>
      <point x="189.585" y="60"/>
      <point x="142" y="139.798"/>
      <point x="142" y="258" type="curve" smooth="yes"/>
      <point x="142" y="442" type="line" smooth="yes"/>
      <point x="142" y="561.824"/>
      <point x="183.217" y="648"/>
      <point x="316" y="648" type="curve" smooth="yes"/>
      <point x="407.968" y="648"/>
      <point x="481.955" y="600.931"/>
      <point x="481.955" y="505.846" type="curve" smooth="yes"/>
      <point x="481.955" y="497" type="line"/>
      <point x="556.927" y="497" type="line"/>
      <point x="556.927" y="507.216" type="line" smooth="yes"/>
      <point x="556.927" y="642.737"/>
      <point x="446.76" y="716"/>
      <point x="316" y="716" type="curve" smooth="yes"/>
      <point x="143.021" y="716"/>
      <point x="68" y="608.983"/>
      <point x="68" y="445" type="curve" smooth="yes"/>
      <point x="68" y="262" type="line" smooth="yes"/>
      <point x="68" y="98.224"/>
      <point x="143.623" y="-8"/>
      <point x="316" y="-8" type="curve" smooth="yes"/>
      <point x="450.072" y="-8"/>
      <point x="555" y="65.8605"/>
      <point x="555" y="208" type="curve" smooth="yes"/>
      <point x="555" y="212" type="line"/>
    </contour>
    <contour>
      <point x="367.152" y="394.714" type="line"/>
      <point x="126.925" y="394.714" type="line"/>
      <point x="126.925" y="327.714" type="line"/>
      <point x="367.152" y="327.714" type="line"/>
    </contour>
  </outline>
  <guideline angle="90" name="h1" x="316" y="0"/>
</glyph>
<glyph name="Ljecyr" format="2">
  <advance width="925"/>
  <unicode hex="0409"/>
  <outline>
    <component base="Elcyr"/>
    <contour>
      <point x="436.82" y="0" type="line"/>
      <point x="636" y="0" type="line" smooth="yes"/>
      <point x="776.459" y="0"/>
      <point x="858" y="77.5002"/>
      <point x="858" y="211" type="curve" smooth="yes"/>
      <point x="858" y="337.315"/>
      <point x="773.461" y="415"/>
      <point x="636" y="415" type="curve" smooth="yes"/>
      <point x="436.82" y="415" type="line"/>
      <point x="436.82" y="348" type="line"/>
      <point x="630" y="348" type="line" smooth="yes"/>
      <point x="729.797" y="348"/>
      <point x="783" y="300.361"/>
      <point x="783" y="211" type="curve" smooth="yes"/>
      <point x="783" y="117.13"/>
      <point x="730.561" y="68.1187"/>
      <point x="630" y="68" type="curve" smooth="yes"/>
      <point x="436.82" y="67.772" type="line"/>
    </contour>
  </outline>
</glyph>
<glyph name="Decyr" format="2">
  <advance width="650"/>
  <unicode hex="0414"/>
  <outline>
    <contour>
      <point x="401.28" y="0" type="line"/>
      <point x="565" y="0" type="line"/>
      <point x="565" y="-170" type="line"/>
      <point x="640" y="-170" type="line"/>
      <point x="640" y="67" type="line"/>
      <point x="401.28" y="67" type="line"/>
    </contour>
    <contour>
      <point x="56" y="0" type="line"/>
      <point x="146" y="0"/>
      <point x="229" y="196"/>
      <point x="243" y="570" type="curve" smooth="yes"/>
      <point x="248" y="707" type="line"/>
      <point x="173" y="707" type="line"/>
      <point x="167" y="564" type="line" smooth="yes"/>
      <point x="154" y="248"/>
      <point x="113" y="67"/>
      <point x="56" y="67" type="curve"/>
    </contour>
    <contour>
      <point x="488" y="0" type="line"/>
      <point x="563" y="0" type="line"/>
      <point x="563" y="707" type="line"/>
      <point x="488" y="707" type="line"/>
    </contour>
    <contour>
      <point x="193" y="640" type="line"/>
      <point x="553" y="640" type="line"/>
      <point x="553" y="707" type="line"/>
      <point x="193" y="707" type="line"/>
    </contour>
    <contour>
      <point x="181" y="0" type="line"/>
      <point x="421.235" y="0" type="line"/>
      <point x="421.235" y="67" type="line"/>
      <point x="181" y="67" type="line"/>
    </contour>
    <contour>
      <point x="10" y="-170" type="line"/>
      <point x="85" y="-170" type="line"/>
      <point x="85" y="0" type="line"/>
      <point x="200.972" y="0" type="line"/>
      <point x="200.972" y="67" type="line"/>
      <point x="10" y="67" type="line"/>
    </contour>
  </outline>
</glyph>
<glyph name="Zhecyr" format="2">
  <advance width="989"/>
  <unicode hex="0416"/>
  <anchor x="416" y="707" name="top"/>
  <outline>
    <contour>
      <point x="511.64" y="328" type="line"/>
      <point x="679.702" y="328" type="line"/>
      <point x="679.702" y="395" type="line"/>
      <point x="511.64" y="395" type="line"/>
    </contour>
    <contour>
      <point x="457" y="0" type="line"/>
      <point x="532" y="0" type="line"/>
      <point x="532" y="707" type="line"/>
      <point x="457" y="707" type="line"/>
    </contour>
    <contour>
      <point x="892" y="0" type="line"/>
      <point x="979" y="0" type="line"/>
      <point x="679.702" y="395" type="line"/>
      <point x="631.826" y="337.073" type="line"/>
    </contour>
    <contour>
      <point x="587.639" y="339.318" type="line"/>
      <point x="648.932" y="339.263" type="line"/>
      <point x="947" y="707" type="line"/>
      <point x="858" y="707" type="line"/>
      <point x="587.639" y="365.317" type="line"/>
    </contour>
    <contour>
      <point x="309.298" y="328" type="line"/>
      <point x="477.36" y="328" type="line"/>
      <point x="477.36" y="395" type="line"/>
      <point x="309.298" y="395" type="line"/>
    </contour>
    <contour>
      <point x="457" y="0" type="line"/>
      <point x="532" y="0" type="line"/>
      <point x="532" y="707" type="line"/>
      <point x="457" y="707" type="line"/>
    </contour>
    <contour>
      <point x="10" y="0" type="line"/>
      <point x="97" y="0" type="line"/>
      <point x="357.174" y="337.073" type="line"/>
      <point x="309.298" y="395" type="line"/>
    </contour>
    <contour>
      <point x="340.068" y="339.263" type="line"/>
      <point x="401.361" y="339.318" type="line"/>
      <point x="401.361" y="365.317" type="line"/>
      <point x="131" y="707" type="line"/>
      <point x="42" y="707" type="line"/>
    </contour>
  </outline>
  <guideline angle="90" name="vertical" x="223" y="0"/>
  <guideline angle="0" name="horizontal" x="0" y="707"/>
  <guideline angle="90" name="vertical" x="424" y="0"/>
  <guideline angle="0" name="horizontal" x="0" y="707"/>
</glyph>
<glyph name="Yucyr" format="2">
  <advance width="794"/>
  <unicode hex="042E"/>
  <anchor x="430" y="773" name="top"/>
  <outline>
    <component base="O" xOffset="170"/>
    <contour>
      <point x="136.64" y="328" type="line"/>
      <point x="284.725" y="328" type="line"/>
      <point x="284.725" y="395" type="line"/>
      <point x="136.64" y="395" type="line"/>
    </contour>
    <contour>
      <point x="82" y="0" type="line"/>
      <point x="157" y="0" type="line"/>
      <point x="157" y="707" type="line"/>
      <point x="82" y="707" type="line"/>
    </contour>
  </outline>
  <guideline angle="90" name="h1" x="430" y="0"/>
</glyph>
<glyph name="decyr" format="2">
  <advance width="539"/>
  <unicode hex="0434"/>
  <outline>
    <contour>
      <point x="448.998" y="-170" type="line"/>
      <point x="518.998" y="-170" type="line"/>
      <point x="518.998" y="65.2194" type="line"/>
      <point x="428.998" y="65.2194" type="line"/>
      <point x="428.998" y="-0.0148621" type="line"/>
      <point x="448.998" y="-0.0148621" type="line"/>
    </contour>
    <contour>
      <point x="20" y="-170" type="line"/>
      <point x="95" y="-170" type="line"/>
      <point x="95" y="65" type="line"/>
      <point x="20" y="65" type="line"/>
    </contour>
    <contour>
      <point x="399" y="0" type="line"/>
      <point x="469" y="0" type="line"/>
      <point x="469" y="519" type="line"/>
      <point x="399" y="519" type="line"/>
    </contour>
    <contour>
      <point x="75" y="0" type="line"/>
      <point x="165" y="0"/>
      <point x="219.349" y="143.864"/>
      <point x="233" y="418.43" type="curve" smooth="yes"/>
      <point x="238" y="519" type="line"/>
      <point x="168.602" y="519" type="line"/>
      <point x="162.602" y="418.006" type="line" smooth="yes"/>
      <point x="149.344" y="194.846"/>
      <point x="110.648" y="52"/>
      <point x="53.6475" y="52" type="curve"/>
    </contour>
    <contour>
      <point x="86.515" y="-0.0021" type="line"/>
      <point x="418.998" y="0.4675" type="line"/>
      <point x="418.998" y="65.4675" type="line"/>
      <point x="86.515" y="65.4675" type="line"/>
    </contour>
    <contour>
      <point x="183" y="452" type="line"/>
      <point x="463" y="452" type="line"/>
      <point x="463" y="519" type="line"/>
      <point x="183" y="519" type="line"/>
    </contour>
  </outline>
  <guideline angle="87.1659" x="233" y="418"/>
  <guideline angle="266.6" x="169" y="519"/>
</glyph>
<glyph name="bullet" format="2">
  <advance width="482"/>
  <unicode hex="2022"/>
  <outline>
    <contour>
      <point x="116" y="315" type="curve" smooth="yes"/>
      <point x="116" y="242.503"/>
      <point x="168.569" y="190"/>
      <point x="241" y="190" type="curve" smooth="yes"/>
      <point x="312.586" y="190"/>
      <point x="367" y="242.98"/>
      <point x="367" y="315" type="curve" smooth="yes"/>
      <point x="367" y="388.267"/>
      <point x="313.864" y="440"/>
      <point x="241" y="440" type="curve" smooth="yes"/>
      <point x="167.266" y="440"/>
      <point x="116" y="388.734"/>
    </contour>
  </outline>
</glyph>
<glyph name="perthousand" format="2">
  <advance width="1183"/>
  <unicode hex="2030"/>
  <outline>
    <contour>
      <point x="201" y="0" type="line"/>
      <point x="265" y="0" type="line"/>
      <point x="647" y="707" type="line"/>
      <point x="583" y="707" type="line"/>
    </contour>
    <contour>
      <point x="166" y="273" type="curve" smooth="yes"/>
      <point x="263.339" y="273"/>
      <point x="291" y="338.36"/>
      <point x="291" y="425" type="curve" smooth="yes"/>
      <point x="291" y="567" type="line" smooth="yes"/>
      <point x="291" y="653.27"/>
      <point x="260.911" y="714"/>
      <point x="166" y="714" type="curve" smooth="yes"/>
      <point x="73.0861" y="714"/>
      <point x="42" y="650.911"/>
      <point x="42" y="567" type="curve" smooth="yes"/>
      <point x="42" y="425" type="line" smooth="yes"/>
      <point x="42" y="339.217"/>
      <point x="69.3061" y="273"/>
    </contour>
    <contour>
      <point x="166" y="333" type="curve" smooth="yes"/>
      <point x="111.572" y="333"/>
      <point x="112" y="387.255"/>
      <point x="112" y="428" type="curve" smooth="yes"/>
      <point x="112" y="561" type="line" smooth="yes"/>
      <point x="112" y="601.933"/>
      <point x="111.862" y="653"/>
      <point x="166" y="653" type="curve" smooth="yes"/>
      <point x="218.385" y="653"/>
      <point x="220" y="600.894"/>
      <point x="220" y="561" type="curve" smooth="yes"/>
      <point x="220" y="428" type="line" smooth="yes"/>
      <point x="220" y="387.072"/>
      <point x="220.49" y="333"/>
    </contour>
    <contour>
      <point x="681" y="-7" type="curve" smooth="yes"/>
      <point x="778.339" y="-7"/>
      <point x="806" y="58.3599"/>
      <point x="806" y="145" type="curve" smooth="yes"/>
      <point x="806" y="287" type="line" smooth="yes"/>
      <point x="806" y="373.27"/>
      <point x="775.911" y="434"/>
      <point x="681" y="434" type="curve" smooth="yes"/>
      <point x="588.086" y="434"/>
      <point x="557" y="370.911"/>
      <point x="557" y="287" type="curve" smooth="yes"/>
      <point x="557" y="145" type="line" smooth="yes"/>
      <point x="557" y="59.2171"/>
      <point x="584.306" y="-7"/>
    </contour>
    <contour>
      <point x="681" y="53" type="curve" smooth="yes"/>
      <point x="626.572" y="53"/>
      <point x="627" y="107.255"/>
      <point x="627" y="148" type="curve" smooth="yes"/>
      <point x="627" y="281" type="line" smooth="yes"/>
      <point x="627" y="321.933"/>
      <point x="626.862" y="373"/>
      <point x="681" y="373" type="curve" smooth="yes"/>
      <point x="733.385" y="373"/>
      <point x="735" y="320.894"/>
      <point x="735" y="281" type="curve" smooth="yes"/>
      <point x="735" y="148" type="line" smooth="yes"/>
      <point x="735" y="107.072"/>
      <point x="735.49" y="53"/>
    </contour>
    <contour>
      <point x="1016" y="-6" type="curve" smooth="yes"/>
      <point x="1113.34" y="-6"/>
      <point x="1141" y="59.3599"/>
      <point x="1141" y="146" type="curve" smooth="yes"/>
      <point x="1141" y="288" type="line" smooth="yes"/>
      <point x="1141" y="374.27"/>
      <point x="1110.91" y="435"/>
      <point x="1016" y="435" type="curve" smooth="yes"/>
      <point x="923.086" y="435"/>
      <point x="892" y="371.911"/>
      <point x="892" y="288" type="curve" smooth="yes"/>
      <point x="892" y="146" type="line" smooth="yes"/>
      <point x="892" y="60.2171"/>
      <point x="919.306" y="-6"/>
    </contour>
    <contour>
      <point x="1016" y="54" type="curve" smooth="yes"/>
      <point x="961.572" y="54"/>
      <point x="962" y="108.255"/>
      <point x="962" y="149" type="curve" smooth="yes"/>
      <point x="962" y="282" type="line" smooth="yes"/>
      <point x="962" y="322.933"/>
      <point x="961.862" y="374"/>
      <point x="1016" y="374" type="curve" smooth="yes"/>
      <point x="1068.39" y="374"/>
      <point x="1070" y="321.894"/>
      <point x="1070" y="282" type="curve" smooth="yes"/>
      <point x="1070" y="149" type="line" smooth="yes"/>
      <point x="1070" y="108.072"/>
      <point x="1070.49" y="54"/>
    </contour>
  </outline>
</glyph>
<glyph name="foursuperior" format="2">
  <advance width="339"/>
  <unicode hex="2074"/>
  <outline>
    <contour>
      <point x="37" y="517" type="line"/>
      <point x="198" y="517" type="line"/>
      <point x="198" y="440" type="line"/>
      <point x="268" y="440" type="line"/>
      <point x="268" y="517" type="line"/>
      <point x="308" y="517" type="line"/>
      <point x="308" y="577" type="line"/>
      <point x="268" y="577" type="line"/>
      <point x="268" y="678" type="line"/>
      <point x="198" y="678" type="line"/>
      <point x="198" y="577" type="line"/>
      <point x="108" y="577" type="line"/>
      <point x="226" y="867" type="line"/>
      <point x="157" y="867" type="line"/>
      <point x="37" y="577" type="line"/>
    </contour>
  </outline>
</glyph>
<glyph name="estimated" format="2">
  <advance width="942"/>
  <unicode hex="212E"/>
  <outline>
    <contour>
      <point x="729.298" y="129.661" type="line"/>
      <point x="667.12" y="57.9171"/>
      <point x="574.332" y="12.0013"/>
      <point x="471.022" y="12.0013" type="curve" smooth="yes"/>
      <point x="380.147" y="12.0013"/>
      <point x="297.559" y="47.0536"/>
      <point x="236.66" y="104.789" type="curve" smooth="yes"/>
      <point x="223.897" y="116.889"/>
      <point x="215.615" y="134.443"/>
      <point x="215.615" y="153.575" type="curve" smooth="yes"/>
      <point x="215.615" y="329.586" type="line" smooth="yes"/>
      <point x="215.615" y="335.325"/>
      <point x="220.398" y="340.108"/>
      <point x="226.137" y="340.108" type="curve" smooth="yes"/>
      <point x="874.698" y="340.108" type="line"/>
      <point x="874.698" y="351.587" type="line" smooth="yes"/>
      <point x="874.698" y="553.425"/>
      <point x="693.905" y="717"/>
      <point x="471.022" y="717" type="curve" smooth="yes"/>
      <point x="248.139" y="717"/>
      <point x="68.3019" y="553.425"/>
      <point x="68.3019" y="351.587" type="curve" smooth="yes"/>
      <point x="68.3019" y="151.662"/>
      <point x="248.139" y="-10"/>
      <point x="471.022" y="-10" type="curve" smooth="yes"/>
      <point x="601.116" y="-10"/>
      <point x="714.949" y="44.525"/>
      <point x="789.562" y="129.661" type="curve"/>
    </contour>
    <contour>
      <point x="226.137" y="362.109" type="line" smooth="yes"/>
      <point x="220.398" y="362.109"/>
      <point x="215.615" y="366.892"/>
      <point x="215.615" y="372.632" type="curve" smooth="yes"/>
      <point x="215.615" y="552.468" type="line" smooth="yes"/>
      <point x="215.615" y="571.6"/>
      <point x="223.98" y="589.068"/>
      <point x="236.66" y="601.254" type="curve" smooth="yes"/>
      <point x="297.639" y="659.858"/>
      <point x="380.147" y="694.999"/>
      <point x="471.022" y="694.999" type="curve" smooth="yes"/>
      <point x="561.897" y="694.999"/>
      <point x="645.361" y="659.858"/>
      <point x="706.34" y="601.254" type="curve" smooth="yes"/>
      <point x="719.02" y="589.068"/>
      <point x="727.385" y="571.6"/>
      <point x="727.385" y="552.468" type="curve" smooth="yes"/>
      <point x="727.385" y="372.632" type="line" smooth="yes"/>
      <point x="727.385" y="366.892"/>
      <point x="722.602" y="362.109"/>
      <point x="716.862" y="362.109" type="curve" smooth="yes"/>
    </contour>
  </outline>
</glyph>
<glyph name="Cacute.loclPLK" format="2">
  <advance width="624"/>
  <outline>
    <component base="C"/>
    <contour>
      <point x="272" y="773" type="line"/>
      <point x="337" y="773" type="line"/>
      <point x="386" y="901" type="line"/>
      <point x="300" y="901" type="line"/>
    </contour>
  </outline>
</glyph>
<glyph name="elcyr.loclBGR" format="2">
  <advance width="449"/>
  <outline>
    <contour>
      <point x="255" y="519" type="line"/>
      <point x="193" y="519" type="line"/>
      <point x="14" y="0" type="line"/>
      <point x="89" y="0" type="line"/>
      <point x="224" y="417" type="line"/>
      <point x="359" y="0" type="line"/>
      <point x="435" y="0" type="line"/>
    </contour>
  </outline>
</glyph>
<glyph name="icyr.loclBGR" format="2">
  <advance width="535"/>
  <anchor x="267" y="586" name="top"/>
  <outline>
    <contour>
      <point x="388" y="223.17" type="line"/>
      <point x="388" y="200" type="line" smooth="yes"/>
      <point x="388" y="116.518"/>
      <point x="359.789" y="56"/>
      <point x="267" y="56" type="curve" smooth="yes"/>
      <point x="175.289" y="56"/>
      <point x="147" y="117.431"/>
      <point x="147" y="200" type="curve" smooth="yes"/>
      <point x="147" y="519" type="line"/>
      <point x="77" y="519" type="line"/>
      <point x="77" y="190" type="line" smooth="yes"/>
      <point x="77" y="66.7131"/>
      <point x="133.698" y="-6"/>
      <point x="247.15" y="-6" type="curve" smooth="yes"/>
      <point x="360.763" y="-6"/>
      <point x="420" y="75.2661"/>
      <point x="420" y="190" type="curve" smooth="yes"/>
      <point x="420" y="223.17" type="line"/>
    </contour>
    <contour>
      <point x="392" y="0" type="line"/>
      <point x="458" y="0" type="line"/>
      <point x="458" y="519" type="line"/>
      <point x="388" y="519" type="line"/>
      <point x="388" y="67.2513" type="line"/>
      <point x="392" y="67.2513" type="line"/>
    </contour>
  </outline>
  <guideline angle="90" name="h1" x="267" y="0"/>
</glyph>
<glyph name="kacyr.loclBGR" format="2">
  <advance width="505"/>
  <outline>
    <contour>
      <point x="77" y="0" type="line"/>
      <point x="146" y="0" type="line"/>
      <point x="146" y="707" type="line"/>
      <point x="77" y="707" type="line"/>
    </contour>
    <contour>
      <point x="195" y="261" type="line"/>
      <point x="270" y="261" type="line"/>
      <point x="457" y="519" type="line"/>
      <point x="373" y="519" type="line"/>
    </contour>
    <contour>
      <point x="401" y="0" type="line"/>
      <point x="486" y="0" type="line"/>
      <point x="268" y="306" type="line"/>
      <point x="225" y="248" type="line"/>
    </contour>
    <contour>
      <point x="126" y="240" type="line"/>
      <point x="261" y="240" type="line"/>
      <point x="261" y="305" type="line"/>
      <point x="126" y="305" type="line"/>
    </contour>
  </outline>
</glyph>
<glyph name="three.sups" format="2">
  <advance width="326"/>
  <outline>
    <contour>
      <point x="40.021" y="548" type="line"/>
      <point x="40.021" y="543.563" type="line" smooth="yes"/>
      <point x="40.021" y="467.284"/>
      <point x="80.9119" y="427"/>
      <point x="160" y="427" type="curve" smooth="yes"/>
      <point x="231.513" y="427"/>
      <point x="283.846" y="474.054"/>
      <point x="283.846" y="547" type="curve" smooth="yes"/>
      <point x="283.846" y="559.999" type="line" smooth="yes"/>
      <point x="283.846" y="602.561"/>
      <point x="268.166" y="639.846"/>
      <point x="225" y="659" type="curve"/>
      <point x="258.184" y="675.596"/>
      <point x="277.828" y="710.342"/>
      <point x="277.828" y="747" type="curve" smooth="yes"/>
      <point x="277.828" y="758.813" type="line" smooth="yes"/>
      <point x="277.828" y="827.452"/>
      <point x="233.311" y="867"/>
      <point x="160" y="867" type="curve" smooth="yes"/>
      <point x="92.9734" y="867"/>
      <point x="42" y="828.209"/>
      <point x="42" y="758" type="curve" smooth="yes"/>
      <point x="42" y="746" type="line"/>
      <point x="104.04" y="746" type="line"/>
      <point x="104.04" y="751.155" type="line" smooth="yes"/>
      <point x="104.04" y="785.775"/>
      <point x="117.975" y="810"/>
      <point x="158" y="810" type="curve" smooth="yes"/>
      <point x="192.812" y="810"/>
      <point x="209.856" y="783.262"/>
      <point x="209.856" y="751" type="curve" smooth="yes"/>
      <point x="209.856" y="740.323" type="line" smooth="yes"/>
      <point x="209.856" y="694.58"/>
      <point x="186.681" y="683.078"/>
      <point x="144.005" y="683.078" type="curve" smooth="yes"/>
      <point x="133" y="683.078" type="line"/>
      <point x="133" y="625.928" type="line"/>
      <point x="142.719" y="625.928" type="line" smooth="yes"/>
      <point x="185.652" y="625.928"/>
      <point x="216.91" y="612.872"/>
      <point x="216.91" y="560" type="curve" smooth="yes"/>
      <point x="216.91" y="550.288" type="line" smooth="yes"/>
      <point x="216.91" y="513.349"/>
      <point x="204.497" y="483"/>
      <point x="159" y="483" type="curve" smooth="yes"/>
      <point x="118.389" y="483"/>
      <point x="101.045" y="506.653"/>
      <point x="101.045" y="542.934" type="curve" smooth="yes"/>
      <point x="101.045" y="548" type="line"/>
    </contour>
  </outline>
</glyph>
<glyph name="two.numr" format="2">
  <advance width="328"/>
  <outline>
    <contour>
      <point x="46" y="280" type="line"/>
      <point x="286" y="280" type="line"/>
      <point x="286" y="340" type="line"/>
      <point x="135" y="340" type="line"/>
      <point x="245" y="491" type="line" smooth="yes"/>
      <point x="268.219" y="522.874"/>
      <point x="284.968" y="551.001"/>
      <point x="284.968" y="592" type="curve" smooth="yes"/>
      <point x="284.968" y="597.062" type="line" smooth="yes"/>
      <point x="284.968" y="669.851"/>
      <point x="241.058" y="714"/>
      <point x="165" y="714" type="curve" smooth="yes"/>
      <point x="93.5441" y="714"/>
      <point x="43" y="673.041"/>
      <point x="43" y="599" type="curve" smooth="yes"/>
      <point x="43" y="584" type="line"/>
      <point x="111.046" y="584" type="line"/>
      <point x="111.046" y="591.662" type="line" smooth="yes"/>
      <point x="111.046" y="625.994"/>
      <point x="119.846" y="657"/>
      <point x="163" y="657" type="curve" smooth="yes"/>
      <point x="196.398" y="657"/>
      <point x="213.963" y="632.632"/>
      <point x="213.963" y="601" type="curve" smooth="yes"/>
      <point x="213.963" y="595.117" type="line" smooth="yes"/>
      <point x="213.963" y="565.95"/>
      <point x="206.298" y="550.87"/>
      <point x="188" y="526" type="curve" smooth="yes"/>
      <point x="46" y="333" type="line"/>
    </contour>
  </outline>
</glyph>
<glyph name="vecyr.loclBGR" format="2">
  <advance width="535"/>
  <outline>
    <contour>
      <point x="77" y="173.195" type="line"/>
      <point x="77" y="65.0014"/>
      <point x="157.696" y="-6"/>
      <point x="258" y="-6" type="curve" smooth="yes"/>
      <point x="385.236" y="-6"/>
      <point x="459" y="86.2162"/>
      <point x="459" y="227.975" type="curve" smooth="yes"/>
      <point x="459" y="310.841"/>
      <point x="420.877" y="375.291"/>
      <point x="370.996" y="390.94" type="curve"/>
      <point x="370.996" y="394.762" type="line"/>
      <point x="414.79" y="424.294"/>
      <point x="439" y="458.234"/>
      <point x="439" y="535.078" type="curve" smooth="yes"/>
      <point x="439" y="642.487"/>
      <point x="372.063" y="707"/>
      <point x="260.62" y="707" type="curve" smooth="yes"/>
      <point x="150.513" y="707"/>
      <point x="77" y="637.956"/>
      <point x="77" y="519" type="curve"/>
      <point x="147" y="519" type="line"/>
      <point x="147" y="594.687"/>
      <point x="186.313" y="642"/>
      <point x="263.143" y="642" type="curve" smooth="yes"/>
      <point x="329.351" y="642"/>
      <point x="369" y="600.764"/>
      <point x="369" y="531.905" type="curve" smooth="yes"/>
      <point x="369" y="445.38"/>
      <point x="335.891" y="411"/>
      <point x="252.565" y="411" type="curve" smooth="yes"/>
      <point x="127" y="411" type="line"/>
      <point x="127" y="346" type="line"/>
      <point x="286.178" y="346" type="line" smooth="yes"/>
      <point x="342.819" y="346"/>
      <point x="380" y="301.649"/>
      <point x="380" y="234.087" type="curve" smooth="yes"/>
      <point x="380" y="123.05"/>
      <point x="348.896" y="59"/>
      <point x="264" y="59" type="curve" smooth="yes"/>
      <point x="199.699" y="59"/>
      <point x="147" y="102.277"/>
      <point x="147" y="173.195" type="curve"/>
    </contour>
    <contour>
      <point x="77" y="173.195" type="line"/>
      <point x="147" y="173.195" type="line"/>
      <point x="147" y="519" type="line"/>
      <point x="77" y="519" type="line"/>
    </contour>
  </outline>
</glyph>
<glyph name="yucyr.loclBGR" format="2">
  <advance width="687"/>
  <anchor x="405" y="586" name="top"/>
  <outline>
    <component base="o" xOffset="170"/>
    <contour>
      <point x="77" y="0" type="line"/>
      <point x="147" y="0" type="line"/>
      <point x="147" y="707" type="line"/>
      <point x="77" y="707" type="line"/>
    </contour>
    <contour>
      <point x="127" y="246" type="line"/>
      <point x="267.543" y="246" type="line"/>
      <point x="267.543" y="311" type="line"/>
      <point x="127" y="311" type="line"/>
    </contour>
  </outline>
  <guideline angle="0" name="horizontal" x="0" y="519"/>
  <guideline angle="90" name="h1" x="120" y="0"/>
  <guideline angle="0" name="horizontal" x="0" y="519"/>
  <guideline angle="90" name="h1" x="405" y="0"/>
</glyph>
<glyph name="zacute.loclPLK" format="2">
  <advance width="466"/>
  <outline>
    <component base="z"/>
    <contour>
      <point x="193" y="586" type="line"/>
      <point x="258" y="586" type="line"/>
      <point x="307" y="714" type="line"/>
      <point x="221" y="714" type="line"/>
    </contour>
  </outline>
</glyph>
